<svg version="1" xmlns="http://www.w3.org/2000/svg" width="258.667" height="258.667" viewBox="0 0 194.000000 194.000000"><path d="M89.7 9.6c-.1.1-3.8.4-8.2.7-23.2 1.7-48.7 10.8-63 22.4l-6 4.9v13.9c0 13.1.9 26.7 2 29.7.2.7.7 2.4.9 3.8.3 1.4.7 3.5 1 4.7.4 1.3.8 3.1 1 4 1 4.2 6 18.1 7.7 21.5 1 2.1 1.9 4.4 1.9 5.3 0 .8.5 1.5 1 1.5.6 0 1 .5 1 1 0 .6 1.2 2.9 2.7 5.3 1.5 2.3 3.4 5.3 4.1 6.7 3.8 7.1 25.5 31 28.1 31 .6 0 1.1.7 1.1 1.6 0 .8.4 1.2 1 .9.5-.3 1-.2 1 .3s1.2 1.4 2.6 2c1.5.7 2.2 1.7 1.8 2.4-.4.6-.3.8.3.5 1.1-.7 9.8 4.6 12.1 7.3.8.8 1.1.9.7.3-.4-.9-.1-1.1.9-.7.9.3 1.3 1.1.9 1.7-.3.5-.2.8.3.5 1.4-.9 5.6 1 4.9 2.2-.3.6.1.7 1 .4.9-.4 2.2.1 3.1 1.2.9 1.1 1.3 1.4 1 .7-.4-.6-.2-1.4.4-1.8.5-.3 1-.1 1 .4 0 .6 1.4.4 3.5-.6 1.9-.9 3.2-2 2.9-2.5-.3-.5.6-.7 2-.4 1.4.3 2.6 0 2.6-.5s-.6-.9-1.2-.9c-.7-.1.2-.7 2.1-1.5 1.8-.8 3.8-1.2 4.4-.8.6.4.7.1.2-.7-.6-1-.4-1.2.8-.7 1.2.4 1.4.2 1-1-.5-1.3-.2-1.5 1.1-1 1.1.5 1.5.3 1-.5s-.2-.9.9-.5 1.7.1 1.7-.8c0-.8.7-1.5 1.6-1.5.8 0 1.3-.4 1-.9-.7-1 2.2-2.4 3.4-1.6.5.3 1.2 0 1.6-.6.5-.8.2-1-.7-.4-.8.4.7-1.3 3.4-3.9 2.6-2.6 5.2-4.4 5.7-4.1.6.4.9.1.8-.6-.2-.7.2-1.3.9-1.4.6 0 1.5-.4 2-.9.5-.6.2-.6-.7-.1-1.3.8-1.3.7-.1-.9.8-.9 1.9-1.5 2.6-1.2.6.2 1.2-.2 1.2-1 0-.7-.5-1-1-.7-.6.4-.7.1-.3-.6.5-.7 1.4-1 2.2-.7.7.3 1.6 0 2-.6.4-.7.3-.8-.4-.4s-1.2.2-1.2-.3c0-.6.6-1.1 1.4-1.1.7 0 2-.8 2.7-1.7 1.2-1.6 1.2-1.7-.1-.8-1 .6-.9.4.2-.6.9-.9 1.4-1.9 1.1-2.3-.4-.3-.1-.6.5-.6.7 0 1.2-.7 1.2-1.5s.5-1.5 1.1-1.5c.5 0 .7.5.3 1.2-.4.7-.3.8.5.4.6-.4.8-1.2.5-1.8-.4-.6.4-2 1.7-3 1.3-1.1 1.8-1.7 1-1.3-.9.5-.8-.1.4-1.9 1-1.4 2.2-2.6 2.7-2.6s.7-.4.3-.9c-.3-.5.1-1.6.9-2.4.8-.8 1.2-1.7.9-2.1-.3-.3.2-.8 1.1-1.2.9-.3 1.4-1 1.1-1.4-.3-.5-.1-1.1.5-1.5.6-.4.7-1.1.4-1.7-.5-.8-.1-.9 1.1-.4 1.5.5 1.6.4.5-.9-1-1.2-.9-1.5.6-1.6 1.2 0 1.4-.3.6-.6-1-.4-.9-1 .5-2.6 1-1.1 1.3-1.7.6-1.4-.8.5-.8.1 0-1.8.7-1.4 1.6-2.5 2-2.5.5 0 .6-.4.2-.9-.3-.5-.1-1.2.5-1.6.6-.4.8-1.1.5-1.6-.4-.5.1-1.8.9-3s1.2-2.8.9-3.7c-.5-1.1-.3-1.3.7-.7.9.5 1.1.4.6-.4-.4-.6-.2-1.8.4-2.6.7-.8.9-1.5.5-1.5s-.1-.8.6-1.7c1-1.1 1-1.4.2-.9-.7.4-1.3.3-1.3-.3 0-.5.5-1.1 1.2-1.3.7-.3 1.1-1.9 1-4-.1-2 .2-3.9.7-4.3.6-.3.8-1.2.5-2-.3-.7-.1-2.3.6-3.4.8-1.6.8-2.1-.2-2.1-.9 0-.9-.3.2-1 .8-.5 1.1-1 .5-1-.5 0-.3-.5.5-1s1-1 .4-1c-.9 0-1.2-6.5-.3-7.4.3-.3.4-3 .3-6-.2-3.1.2-5.8.7-6.2.5-.3.9-1.1.9-1.7 0-.7-.4-.6-1 .3-.6 1-.9-.2-.8-3.9 0-6.3-1.4-8.1-11.4-14.7-11.2-7.5-29.1-14.7-41.8-16.8-1.9-.3-4.5-.8-5.7-1-6.2-1.2-31.7-2.8-32.6-2zm-4.1 13.6c-1.1-1.9 1.2-1.4 2.4.5.8 1.2 1 1.3.7.3-.6-1.9 5.3-2.6 6.5-.7.6.9.8.9.8-.2s.3-1.1 1.7 0c1.1 1 1.4 1 .9.1-.4-.7-.1-1.2.9-1.2.9 0 1.4.4 1 .9-.3.5-.1 1.3.5 1.6.6.4 1 .3.9-.2-.3-2 .2-2.3 2.2-1.2 1.2.6 1.9.7 1.6.2-.4-.5.7-1 2.3-1 1.7 0 3 .4 3 .8 0 .5.7.6 1.5.3.8-.4 2.3 0 3.2.7 1.4 1.2 1.6 1.2.8-.1s-.7-1.3.8-.1c.9.7 1.7.9 1.7.3 0-.5.9-.8 2-.5 1.1.3 2 .9 2 1.3s1.2.5 2.6.2c1.8-.3 3 0 3.6 1.2.5.9 1.7 1.6 2.6 1.5 1.4 0 1.3-.2-.3-.9-2.3-1-1-1.2 2.2-.4 1.3.4 2.1 1 1.8 1.4-.3.4.1.8.8.7 3.5-.1 4.8.4 4.1 1.5-.5.9-.2.9.9-.1 1.2-.9 1.7-1 1.7-.2 0 .7.4 1 .9.6.6-.3 1.4.3 2 1.2.6 1 1.1 1.3 1.1.6 0-.7.7-1 1.5-.7.8.4 1.2 1.1.9 1.6-.4.6.2.8 1.5.3 1.6-.5 2.1-.2 2.1 1.2 0 1.5.2 1.6 1 .3.5-.8 1-1 1-.4 0 .5 1.8 1.8 4 2.8 2.2 1 4 2.2 4 2.7s.6.9 1.3.9c.8 0 2.2.8 3.1 1.9 3.9 4.3.6 36.4-5.6 54.6C155.2 117 146 132 132 146c-11.1 11.1-12.8 12.6-22.5 18.9-11.3 7.4-12.8 7.8-17.8 5.1-4.9-2.7-14.3-8.8-17.1-11-13.2-10.7-23.6-22.4-31.3-35-4.1-6.7-10.3-19.5-10.6-22.1-.2-.8-.5-1.9-.8-2.4-.3-.6-1.1-2.9-1.7-5.3-.7-2.3-1.7-5.9-2.3-8-.6-2-1.1-5.4-1.2-7.4-.1-2.1-.4-3.8-.7-3.8-.3 0-.6-1.7-.8-3.8-.2-2-.4-4.6-.6-5.7-.1-1.1.3-2.6.8-3.4.8-1.1.8-1.3-.1-.7-.9.5-1.3 0-1.3-1.6V56c0-.8.1-4 .2-7 .3-4.6.6-5.5 2.1-5.4 1.3.1 1.5-.2.8-1s-.4-1.2 1.1-1.3c1.2-.1 2.6-.7 3.2-1.4.8-.9.7-1-.3-.4s-1.2.4-.7-.4c.5-.7 1.4-1 2.2-.7.8.3 1.4.1 1.4-.4s.7-.6 1.7-.3c1 .4 1.4.2 1-.4-.4-.6 0-1.6.8-2.3.8-.7 1.5-1 1.5-.6 0 .3 1.6-.3 3.6-1.4 1.9-1.1 3.9-1.8 4.5-1.5.5.4.9.1.9-.6 0-.8.4-.8 1.5.1 1.3 1.1 1.4 1 .9-.5-.5-1.1-.3-1.6.2-1.2.6.3 1.6.2 2.4-.3.8-.5 2.1-.5 3.2.1 1.4.7 1.6.6 1.2-.6-.6-1.5.3-1.8 5.1-1.7 1.1 0 2.2-.4 2.5-.9.3-.4 2-1.1 3.9-1.4 2.5-.4 3.1-.2 2.5.7-.4.7.1.5 1.2-.4 1.6-1.4 2.3-1.5 3.4-.5 1 .9 1.1.9.6-.1-.4-.6-.3-1.2.1-1.2.5 0 1.5.6 2.2 1.2 1.1 1 1.3 1 .7 0-.5-.7-.1-1.2.9-1.2.9 0 1.4.5 1 1.2-.3.7 0 .5.7-.4 1-1.3 1.5-1.4 2.7-.5 1.2.9 1.3.9.7-.1z"/><path d="M67.6 25.8c-.3.5.1.9.9.9s1.2-.4.9-.9c-.3-.4-.7-.8-.9-.8-.2 0-.6.4-.9.8zM34.3 48.3c-1.8 2.3-3.5 7.6-2.8 8.6.3.6 1.2 1.1 1.9 1.1s2.3.9 3.6 2c1.2 1.1 2.7 1.7 3.1 1.4.5-.3.9-.1.9.5s.6.8 1.4.5c.8-.3 1.7 0 2.2.7.5.8.3 1-.6.4-.9-.5-1.1-.4-.6.4.4.6 1.2.9 1.7.5.5-.3 2.3.2 4.1 1 1.7.9 3.7 1.6 4.5 1.6.7 0 1.3.5 1.3 1.2 0 .6.3.8.7.5.3-.4 1.2.1 2 1.1.8.9 1.2 1.1.8.4-.3-.6-.1-1.2.4-1.2.6 0 1.1.5 1.1 1.1 0 .5.3.8.8.5.4-.2 1.6.2 2.7 1 1.8 1.3 2 2.7 2 19.8v18.3l2.7 2.4c1.5 1.3 4.8 3.9 7.3 5.8 2.5 1.8 4.2 3.8 3.9 4.3-.3.5.2.8 1.2.6 1.2-.2 1.8.2 1.6 1-.1.8.2 1.1.8.7.5-.3 2.1.5 3.5 1.9s2.5 2.2 2.5 1.8c0-.4.5 0 1 .8s1 7.7 1 15.2c0 8.5.4 13.8 1 13.8 1.9 0 2.5.3 3.8 1.9 1.2 1.5 1.3 1.5.9 0-.4-1.3.1-1.6 2.4-1.5 1.6.1 2.9 0 3-.3.4-3.3.2-7.1-.4-7.1-.4 0-.3-.9.3-2s.7-2 .3-2c-.7 0-.8-11.2-.2-13 .1-.3.1-.8.1-1.2-.1-.3.5-1.2 1.3-1.8.8-.7 1.5-1.8 1.5-2.6 0-1.6 5.3-5.5 7.9-5.7 1 0 1.7-.6 1.4-1.2-.6-1.6 2.4-3.8 4.1-3.2 1 .4 1.3.1 1-.7-.3-.7.2-1.9 1.1-2.6 1.3-1.1 1.4-1 .8.6-.6 1.6-.5 1.7.9.4.9-.8 1.5-2 1.5-2.5-.1-.6.4-.9 1.1-.8.6.2 1.2-.4 1.2-1.2 0-.8.4-1.5 1-1.5.5 0 .7-.7.3-1.6-.3-.9 0-2 .8-2.5s.9-.9.3-.9c-.7 0-1.2-1.5-1.2-3.5 0-2.4.4-3.3 1.2-2.8.8.5.8.3 0-.8-1.6-2-1.6-8.2-.1-7.2.9.5.9.3.1-.8-1.6-2-1.6-8.2-.1-7.2.9.5.9.3 0-.8-1.4-1.8-1.3-5.9.2-5.9.5 0 .3-.5-.5-1-1.3-.9-1.3-1 0-1 1.2 0 1.3-.2.1-.9-1.1-.7-.9-1 .8-1.6 1.1-.3 2.6-.3 3.2.1.8.4.9.3.5-.4-.7-1.2.5-1.6 3.3-1.3.7.2 1.1-.1.8-.6-.3-.4 1.2-1.6 3.4-2.5 2.5-1.1 3.7-1.2 3.3-.5-.3.7 0 .5.8-.4.7-.9 2.1-1.5 3.1-1.3.9.1 1.5-.2 1.2-.6-.6-1 3.3-2.5 5.4-2.1.8.1 1-.2.6-.9-.6-.9-.2-.9 1.5 0 1.5.8 2 .8 1.6.1-1.2-1.9.4-3.4 2-2 1.2 1 1.5 1 1.2-.2-.2-.8.2-1.3.9-1.2 1.2.3-1.8-8.2-3.5-9.9-.4-.4-9.7 3.2-20.7 8.1l-20 8.7-.3 20-.3 19.9-9.1 7c-5 3.8-9.7 7.4-10.4 7.8-.9.5-4.4-1.6-10.6-6.5-5.1-3.9-9.5-7.3-9.7-7.4-.2-.2-.5-2.8-.6-5.9-.2-3.7 0-5.3.7-4.9.7.5.8.2.2-.7-1.2-2.1-1.4-12-.1-11.2.6.4.7.1.1-.8-.5-.8-1-2.5-1.2-3.7-.2-1.7.1-2.2 1-1.6 1 .6 1.1.5.1-.8-.7-.8-1.2-3.4-1.1-5.7.1-2.3-.3-4.6-.8-5-.5-.5-8.3-4.1-17.4-8.1-24.6-10.8-22.7-10.1-23.7-8.7zm69.1 81.2c-.4.8-1.1 1.5-1.6 1.5-.6 0-.5-.6.2-1.5.7-.8 1.4-1.5 1.6-1.5.2 0 .1.7-.2 1.5z"/><path d="M107.4 126.6c-1.8 1.4-1.8 1.5.4.4 1.2-.6 2.2-1.3 2.2-1.5 0-.8-.5-.6-2.6 1.1zM133.4 163.6c-1.8 1.4-1.8 1.4.6.3 3.1-1.4 3.6-1.9 2.4-1.9-.6 0-1.9.7-3 1.6z"/></svg>