<svg version="1" xmlns="http://www.w3.org/2000/svg" width="3226.667" height="3226.667" viewBox="0 0 2420.000000 2420.000000"><path d="M1131 51c-136.1 5-254 18.7-374.5 43.6-212 43.8-408.4 122.2-563.5 224.9-52.9 35-93.6 67.2-123.6 97.7l-13.2 13.3-1.1 23c-3.4 70.9-3.9 173.8-1.2 230 7.9 159.1 27.3 293 62.6 432 57.5 226.7 155.1 438.3 287.3 623.5 62.9 88 126.2 162.1 205.4 240.5 67.5 67 128.6 119.5 204.8 176.5 124.1 92.6 265.8 173.7 376.8 215.6l19.3 7.3 18.2-6.8c87.1-32.5 208.1-98.1 311.7-169 242.4-165.9 439.1-378.1 578.2-624.1 48-84.8 90.1-175.1 123.6-265 75.9-203.7 116.9-417.6 125.3-653.4 2-56 .4-179.1-2.9-222.1l-.7-9.1-18-17.4c-40.6-39.5-94.3-79.3-162-120.2-175.5-106-394.3-181.4-629.1-216.7-78.7-11.9-149-18.6-240.4-23.2-27.6-1.3-153.6-2-183-.9zm162.5 158.1c320.9 11.6 614.7 94.6 838.1 236.9 24.9 15.8 66.4 45.4 74.9 53.4l3.3 3.1.7 39c1.2 59-.2 123.4-4 184-28.3 449.9-196.1 832-498.5 1134.5-130.8 130.8-291.4 247.2-453 328-20.5 10.3-43.6 21-45.1 21-.5 0-11.4-4.9-24.1-11-77.6-36.8-168-90.6-247.3-147-135.9-96.8-253-207.2-355-334.5-188.7-235.6-306.6-511.6-352.4-824.5-16.2-110.7-23.9-237.8-21.3-350l1-40.5 3.3-2.8c1.9-1.6 11.4-8.9 21.2-16.3 89-66.9 213.7-130.7 342.7-175.2 215.3-74.4 456.8-107.5 715.5-98.1z"/><path d="M364.1 551.2c-.5 1.3-12 28.6-25.5 60.7s-24.5 58.5-24.4 58.6c.2.1 106.5 44.9 236.3 99.5s237 99.7 238.2 100.3l2.3 1 .2 250 .3 250.1 176.2 133 176.3 133.1V2011h132V1637.3l176-132.9 176-132.9v-500l238.5-100.4c131.2-55.2 238.5-100.9 238.5-101.4 0-2-50.4-120.7-51.1-120.5-.4.2-125.8 52.9-278.8 117.3l-278 117-.1 260.7v260.7l-6.7 5.4c-3.8 3-68.4 51.8-143.6 108.6l-136.8 103.3-23.2-17.5c-12.8-9.6-77.2-58.3-143.2-108.1l-120-90.6-.5-261.2-.5-261.2-275-115.8c-151.2-63.7-276.7-116.5-278.8-117.3-3.6-1.5-3.8-1.4-4.6.7z"/></svg>